<svg xmlns="http://www.w3.org/2000/svg" width="320" height="240" viewBox="0 0 320 240">
  <rect width="320" height="240" fill="#111827"/>
  <rect x="0" y="0" width="320" height="28" fill="#0b1220"/>
  <text x="8" y="19" fill="#f8fafc" font-family="DejaVu Sans, sans-serif" font-size="12" font-weight="bold">Desk Dashboard</text>
  <circle cx="259" cy="14" r="4" fill="#22c55e"/>
  <text x="268" y="18" fill="#cbd5e1" font-family="DejaVu Sans, sans-serif" font-size="10">12:21</text>

  <g font-family="DejaVu Sans, sans-serif" text-anchor="middle">
    <g>
      <rect x="6" y="34" width="98" height="84" rx="9" fill="#2563eb"/>
      <image href="../sd-card/dashboard/assets/icons/weather.png" x="37" y="45" width="36" height="36"/>
      <text x="55" y="103" fill="#ffffff" font-size="12" font-weight="bold">Weather</text>
    </g>
    <g>
      <rect x="111" y="34" width="98" height="84" rx="9" fill="#0891b2"/>
      <image href="../sd-card/dashboard/assets/icons/flights.png" x="142" y="45" width="36" height="36"/>
      <text x="160" y="103" fill="#ffffff" font-size="12" font-weight="bold">Flights</text>
    </g>
    <g>
      <rect x="216" y="34" width="98" height="84" rx="9" fill="#7c3aed"/>
      <image href="../sd-card/dashboard/assets/icons/bambuddy.png" x="247" y="45" width="36" height="36"/>
      <text x="265" y="103" fill="#ffffff" font-size="12" font-weight="bold">Bambuddy</text>
    </g>
    <g>
      <rect x="6" y="125" width="98" height="84" rx="9" fill="#0f766e"/>
      <image href="../sd-card/dashboard/assets/icons/systems.png" x="37" y="136" width="36" height="36"/>
      <text x="55" y="194" fill="#ffffff" font-size="12" font-weight="bold">Systems</text>
    </g>
    <g>
      <rect x="111" y="125" width="98" height="84" rx="9" fill="#b45309"/>
      <image href="../sd-card/dashboard/assets/icons/calendar.png" x="142" y="136" width="36" height="36"/>
      <text x="160" y="194" fill="#ffffff" font-size="12" font-weight="bold">Calendar</text>
    </g>
    <g>
      <rect x="216" y="125" width="98" height="84" rx="9" fill="#475569"/>
      <image href="../sd-card/dashboard/assets/icons/settings.png" x="247" y="136" width="36" height="36"/>
      <text x="265" y="194" fill="#ffffff" font-size="12" font-weight="bold">Settings</text>
    </g>
  </g>

  <text x="8" y="229" fill="#94a3b8" font-family="DejaVu Sans, sans-serif" font-size="9">Wi-Fi connected</text>
  <text x="312" y="229" fill="#94a3b8" font-family="DejaVu Sans, sans-serif" font-size="9" text-anchor="end">SD ready</text>
</svg>
